<?xml version="1.0" standalone="no"?><!DOCTYPE svg PUBLIC "-//W3C//DTD SVG 1.1//EN" "http://www.w3.org/Graphics/SVG/1.1/DTD/svg11.dtd"><svg t="1521467494983" class="icon" style="" viewBox="0 0 1024 1024" version="1.1" xmlns="http://www.w3.org/2000/svg" p-id="1264" xmlns:xlink="http://www.w3.org/1999/xlink" width="200" height="200"><defs><style type="text/css"></style></defs><path d="M769.453672 658.238607 239.275099 658.238607c-7.71264 0-13.952227 6.268786-13.952227 13.95122l0 27.904453c0 7.711633 6.239586 13.95122 13.952227 13.95122l530.177565 0c7.711633 0 13.95122-6.239586 13.95122-13.95122l0-27.904453C783.404891 664.507393 777.165305 658.238607 769.453672 658.238607zM769.453672 797.759867 239.275099 797.759867c-7.71264 0-13.952227 6.268786-13.952227 13.95122l0 27.904453c0 7.711633 6.239586 13.95122 13.952227 13.95122l530.177565 0c7.711633 0 13.95122-6.239586 13.95122-13.95122l0-27.904453C783.404891 804.027646 777.165305 797.759867 769.453672 797.759867zM783.404891 16.445242 225.322873 16.445242c-123.305585 0-223.232606 99.955214-223.232606 223.232606l0 558.082019c0 123.280413 99.927021 223.232606 223.232606 223.232606l558.081012 0c123.306592 0 223.232606-99.952193 223.232606-223.232606L1006.636491 239.677848C1006.637498 116.400456 906.711483 16.445242 783.404891 16.445242zM950.828591 769.855414c0 107.856139-87.442814 195.328153-195.328153 195.328153L253.227326 965.183566c-107.885339 0-195.32916-87.472014-195.32916-195.328153L57.898166 267.581295c0-107.857146 87.442814-195.328153 195.32916-195.328153l502.273112 0c107.885339 0 195.328153 87.472014 195.328153 195.328153L950.828591 769.855414zM392.71838 433.80883l0 1.197171c-15.420246 0.028192-27.875254 12.508372-27.875254 27.903446 0 15.424274 12.508372 27.904453 27.903446 27.904453l83.712353 0 0 83.712353 55.8079 0 0-83.712353 83.71336 0c15.395074 0 27.903446-12.48018 27.903446-27.904453s-12.508372-27.903446-27.903446-27.903446l-83.71336 0 0-55.808907 83.71336 0c15.395074 0 27.903446-12.479173 27.903446-27.903446s-12.508372-27.903446-27.903446-27.903446l-55.808907 0 83.712353-111.6158-55.8079-27.904453-83.71336 111.6158-83.712353-111.6158-55.8079 27.904453 83.712353 111.6158-55.8079 0c-15.396081 0-27.903446 12.479173-27.903446 27.903446s12.508372 27.903446 27.903446 27.903446l83.712353 0 0 55.808907L392.71838 433.80883z" p-id="1265"></path></svg>